<?xml version="1.0" encoding="UTF-8" standalone="no"?>
<!-- Created with Inkscape (http://www.inkscape.org/) -->

<svg
   xmlns:dc="http://purl.org/dc/elements/1.1/"
   xmlns:cc="http://creativecommons.org/ns#"
   xmlns:rdf="http://www.w3.org/1999/02/22-rdf-syntax-ns#"
   xmlns:svg="http://www.w3.org/2000/svg"
   xmlns="http://www.w3.org/2000/svg"
   xmlns:sodipodi="http://sodipodi.sourceforge.net/DTD/sodipodi-0.dtd"
   xmlns:inkscape="http://www.inkscape.org/namespaces/inkscape"
   width="250mm"
   height="315mm"
   viewBox="0 0 885.82677 1116.1418"
   id="svg2"
   version="1.1"
   inkscape:version="0.91 r13725"
   sodipodi:docname="column.svg">
  <sodipodi:namedview
     id="base"
     pagecolor="#ffffff"
     bordercolor="#666666"
     borderopacity="1.0"
     inkscape:pageopacity="0.0"
     inkscape:pageshadow="2"
     inkscape:zoom="0.53990437"
     inkscape:cx="426.981"
     inkscape:cy="557.15732"
     inkscape:document-units="px"
     inkscape:current-layer="layer1"
     showgrid="false"
     inkscape:window-width="1920"
     inkscape:window-height="1025"
     inkscape:window-x="-3"
     inkscape:window-y="-3"
     inkscape:window-maximized="1"
     showborder="true" />
  <defs
     id="defs4">
    <marker
       inkscape:stockid="Arrow2Lstart"
       orient="auto"
       refY="0"
       refX="0"
       id="marker7863"
       style="overflow:visible"
       inkscape:isstock="true">
      <path
         id="path7865"
         style="fill:#000000;fill-opacity:1;fill-rule:evenodd;stroke:#000000;stroke-width:0.625;stroke-linejoin:round;stroke-opacity:1"
         d="M 8.7185878,4.0337352 -2.2072895,0.01601326 8.7185884,-4.0017078 c -1.7454984,2.3720609 -1.7354408,5.6174519 -6e-7,8.035443 z"
         transform="matrix(1.1,0,0,1.1,1.1,0)"
         inkscape:connector-curvature="0" />
    </marker>
    <marker
       inkscape:collect="always"
       inkscape:isstock="true"
       style="overflow:visible"
       id="marker6129"
       refX="0"
       refY="0"
       orient="auto"
       inkscape:stockid="Arrow2Lstart">
      <path
         inkscape:connector-curvature="0"
         transform="matrix(1.1,0,0,1.1,1.1,0)"
         d="M 8.7185878,4.0337352 -2.2072895,0.01601326 8.7185884,-4.0017078 c -1.7454984,2.3720609 -1.7354408,5.6174519 -6e-7,8.035443 z"
         style="fill:#000000;fill-opacity:1;fill-rule:evenodd;stroke:#000000;stroke-width:0.625;stroke-linejoin:round;stroke-opacity:1"
         id="path6131" />
    </marker>
    <marker
       inkscape:isstock="true"
       style="overflow:visible"
       id="marker6087"
       refX="0"
       refY="0"
       orient="auto"
       inkscape:stockid="Arrow2Lstart">
      <path
         inkscape:connector-curvature="0"
         transform="matrix(1.1,0,0,1.1,1.1,0)"
         d="M 8.7185878,4.0337352 -2.2072895,0.01601326 8.7185884,-4.0017078 c -1.7454984,2.3720609 -1.7354408,5.6174519 -6e-7,8.035443 z"
         style="fill:#000000;fill-opacity:1;fill-rule:evenodd;stroke:#000000;stroke-width:0.625;stroke-linejoin:round;stroke-opacity:1"
         id="path6089" />
    </marker>
    <marker
       inkscape:stockid="Arrow2Lstart"
       orient="auto"
       refY="0"
       refX="0"
       id="Arrow2Lstart"
       style="overflow:visible"
       inkscape:isstock="true"
       inkscape:collect="always">
      <path
         id="path4230"
         style="fill:#000000;fill-opacity:1;fill-rule:evenodd;stroke:#000000;stroke-width:0.625;stroke-linejoin:round;stroke-opacity:1"
         d="M 8.7185878,4.0337352 -2.2072895,0.01601326 8.7185884,-4.0017078 c -1.7454984,2.3720609 -1.7354408,5.6174519 -6e-7,8.035443 z"
         transform="matrix(1.1,0,0,1.1,1.1,0)"
         inkscape:connector-curvature="0" />
    </marker>
    <marker
       inkscape:stockid="Arrow2Lend"
       orient="auto"
       refY="0"
       refX="0"
       id="Arrow2Lend"
       style="overflow:visible"
       inkscape:isstock="true">
      <path
         id="path4233"
         style="fill:#000000;fill-opacity:1;fill-rule:evenodd;stroke:#000000;stroke-width:0.625;stroke-linejoin:round;stroke-opacity:1"
         d="M 8.7185878,4.0337352 -2.2072895,0.01601326 8.7185884,-4.0017078 c -1.7454984,2.3720609 -1.7354408,5.6174519 -6e-7,8.035443 z"
         transform="matrix(-1.1,0,0,-1.1,-1.1,0)"
         inkscape:connector-curvature="0" />
    </marker>
    <marker
       inkscape:stockid="Arrow1Lend"
       orient="auto"
       refY="0"
       refX="0"
       id="Arrow1Lend"
       style="overflow:visible"
       inkscape:isstock="true">
      <path
         id="path4215"
         d="M 0,0 5,-5 -12.5,0 5,5 0,0 Z"
         style="fill:#000000;fill-opacity:1;fill-rule:evenodd;stroke:#000000;stroke-width:1pt;stroke-opacity:1"
         transform="matrix(-0.8,0,0,-0.8,-10,0)"
         inkscape:connector-curvature="0" />
    </marker>
  </defs>
  <metadata
     id="metadata7">
    <rdf:RDF>
      <cc:Work
         rdf:about="">
        <dc:format>image/svg+xml</dc:format>
        <dc:type
           rdf:resource="http://purl.org/dc/dcmitype/StillImage" />
        <dc:title></dc:title>
      </cc:Work>
    </rdf:RDF>
  </metadata>
  <g
     inkscape:label="Layer 1"
     inkscape:groupmode="layer"
     id="layer1"
     transform="translate(0,63.77953)">
    <text
       xml:space="preserve"
       style="font-style:normal;font-weight:normal;font-size:40px;line-height:125%;font-family:Sans;letter-spacing:0px;word-spacing:0px;fill:#000000;fill-opacity:1;stroke:none;stroke-width:1px;stroke-linecap:butt;stroke-linejoin:miter;stroke-opacity:1"
       x="27.662811"
       y="106.9474"
       id="text6739"
       sodipodi:linespacing="125%"><tspan
         sodipodi:role="line"
         id="tspan6741"
         x="27.662811"
         y="106.9474">porous medium:</tspan></text>
    <g
       style="font-style:normal;font-variant:normal;font-weight:normal;font-stretch:normal;letter-spacing:normal;word-spacing:normal;text-anchor:start;fill:none;fill-opacity:1;fill-rule:evenodd;stroke:#000000;stroke-linecap:butt;stroke-linejoin:miter;stroke-miterlimit:10.43299961;stroke-dasharray:none;stroke-dashoffset:0;stroke-opacity:1"
       id="g5809"
       transform="matrix(1.062992,-3.4133898e-4,3.4133898e-4,1.062992,-295.00268,-208.92593)">
      <g
         word-spacing="normal"
         letter-spacing="normal"
         font-size-adjust="none"
         font-stretch="normal"
         font-weight="normal"
         font-variant="normal"
         font-style="normal"
         stroke-miterlimit="10.433"
         xml:space="preserve"
         transform="matrix(1.0629921,0,0,-1.0629921,-186.02362,789.27165)"
         id="g5811"
         style="font-style:normal;font-variant:normal;font-weight:normal;font-stretch:normal;letter-spacing:normal;word-spacing:normal;text-anchor:start;fill:none;fill-opacity:1;fill-rule:evenodd;stroke:#000000;stroke-linecap:butt;stroke-linejoin:miter;stroke-miterlimit:10.43299961;stroke-dasharray:none;stroke-dashoffset:0;stroke-opacity:1"><path
           id="path5813"
           d="m 480.88,426.32 -0.01,0.02 0,0.02 -0.01,0.01 -0.01,0.02 0,0.02 -0.01,0.02 -0.01,0.03 -0.01,0.02 -0.01,0.02 -0.01,0.02 -0.01,0.03 -0.01,0.02 -0.02,0.05 -0.02,0.06 -0.02,0.05 -0.02,0.05 -0.01,0.02 -0.01,0.03 -0.01,0.02 -0.01,0.02 -0.01,0.03 0,0.02 -0.01,0.02 0,0.02 -0.01,0.02 0,0.02 0,0.01 0,0.02 c 0,0.04 0.89,0.75 1.45,1.14 l 8.72,6.73 c 4.67,3.44 6.63,3.63 8.11,3.78 0.41,0.05 0.91,0.1 0.91,1 0,0.19 -0.16,0.55 -0.55,0.55 -1.11,0 -2.34,-0.16 -3.55,-0.16 -1.79,0 -3.73,0.16 -5.53,0.16 -0.34,0 -0.94,0 -0.94,-1 0,-0.34 0.25,-0.5 0.6,-0.55 1.09,-0.09 1.54,-0.34 1.54,-1.04 0,-0.89 -1.5,-2.05 -1.79,-2.3 l -19.44,-14.94 4,15.99 c 0.44,1.79 0.55,2.29 4.17,2.29 1.25,0 1.71,0 1.71,1 0,0.44 -0.41,0.55 -0.71,0.55 -1.39,0 -4.98,-0.16 -6.37,-0.16 -1.44,0 -4.99,0.16 -6.42,0.16 -0.36,0 -1,0 -1,-0.95 0,-0.6 0.45,-0.6 1.43,-0.6 0.66,0 1.55,-0.04 2.14,-0.09 0.8,-0.11 1.11,-0.25 1.11,-0.8 0,-0.2 -0.06,-0.36 -0.2,-0.95 l -6.67,-26.75 c -0.5,-1.95 -0.61,-2.34 -4.55,-2.34 -0.84,0 -1.39,0 -1.39,-0.96 0,-0.59 0.59,-0.59 0.75,-0.59 1.39,0 4.94,0.16 6.33,0.16 1.05,0 2.14,-0.07 3.19,-0.07 1.09,0 2.18,-0.09 3.23,-0.09 0.36,0 1,0 1,1 0,0.55 -0.45,0.55 -1.39,0.55 -1.84,0 -3.23,0 -3.23,0.89 0,0.36 0.29,1.45 0.43,2.2 0.71,2.58 1.35,5.22 2,7.81 l 7.42,5.78 5.79,-13.4 c 0.59,-1.35 0.59,-1.44 0.59,-1.74 0,-1.5 -2.14,-1.54 -2.59,-1.54 -0.55,0 -1.1,0 -1.1,-1 0,-0.55 0.6,-0.55 0.71,-0.55 1.98,0 4.07,0.16 6.07,0.16 1.1,0 3.78,-0.16 4.88,-0.16 0.25,0 0.9,0 0.9,1 0,0.55 -0.56,0.55 -1,0.55 -2.04,0.04 -2.68,0.5 -3.43,2.23 z"
           inkscape:connector-curvature="0"
           style="fill:#000000;stroke-width:0" /><path
           id="path5815"
           d="m 508.83,406.25 -0.01,0.3 -0.01,0.3 -0.01,0.29 -0.03,0.28 -0.03,0.27 -0.04,0.26 -0.04,0.26 -0.06,0.24 -0.05,0.24 -0.07,0.23 -0.07,0.22 -0.08,0.21 -0.08,0.2 -0.09,0.19 -0.09,0.19 -0.1,0.17 -0.11,0.16 -0.11,0.16 -0.12,0.14 -0.12,0.13 -0.13,0.13 -0.13,0.11 -0.14,0.1 -0.15,0.1 -0.15,0.08 -0.15,0.07 -0.16,0.06 -0.16,0.05 -0.17,0.04 -0.17,0.03 -0.18,0.01 -0.18,0.01 c -1.64,0 -2.64,-1.25 -2.64,-2.64 0,-1.34 1,-2.64 2.64,-2.64 0.59,0 1.25,0.2 1.75,0.64 0.14,0.11 0.2,0.16 0.25,0.16 0.05,0 0.09,-0.05 0.09,-0.75 0,-3.69 -1.73,-6.68 -3.39,-8.32 -0.54,-0.54 -0.54,-0.65 -0.54,-0.79 0,-0.36 0.25,-0.55 0.5,-0.55 0.54,0 4.53,3.83 4.53,9.66 z"
           inkscape:connector-curvature="0"
           style="fill:#000000;stroke-width:0" /><path
           id="path5817"
           d="m 556.36,439.57 0,0.01 0,0.01 0,0 0,0.01 0.01,0.01 0,0.01 0,0 0,0.01 0,0.02 0.01,0.03 0,0.02 0.01,0.02 0,0.03 0.01,0.03 0.01,0.02 0,0.03 0.01,0.03 0.01,0.03 0.01,0.06 0.02,0.06 0,0.03 0.01,0.02 0.01,0.03 0,0.03 0.01,0.02 0.01,0.02 0,0.02 0.01,0.02 0,0.01 0,0.01 0,0.01 0,0.01 0,0 0.01,0.01 0,0.01 0,0 0,0.01 0,0 0,0 0,0.01 c 0,0.04 0,0.5 -0.59,0.5 -0.5,0 -0.55,-0.16 -0.75,-1 l -2.9,-11.5 c -7.92,-0.25 -15.25,-6.88 -15.25,-13.66 0,-4.73 3.49,-8.67 9.57,-9.01 l 0.25,1.09 c -2.99,0.14 -6.58,1.89 -6.58,6.87 0,5.99 4.3,12.96 11.72,13.6 l -5.14,-20.47 -0.25,-1.09 c -0.39,-1.55 -0.74,-3.15 -1.14,-4.69 -0.6,-2.35 -1.1,-4.24 -1.1,-4.39 0,-0.49 0.35,-0.55 0.6,-0.55 0.25,0 0.36,0.06 0.5,0.2 0.09,0.1 0.4,1.3 0.54,2 l 1.9,7.43 0.25,1.09 5.13,20.47 c 3.79,-0.19 6.63,-2.49 6.63,-6.88 0,-5.87 -4.28,-13 -11.76,-13.59 l -0.25,-1.09 c 8.03,0.25 15.25,6.96 15.25,13.64 0,3.93 -2.65,8.53 -9.57,9.03 z"
           inkscape:connector-curvature="0"
           style="fill:#000000;stroke-width:0" /></g>    </g>
    <g
       id="g5990"
       transform="translate(-102.10952,-88.026859)">
      <path
         inkscape:connector-curvature="0"
         id="path3336"
         d="m 492.86018,208.07138 c 1.41899,801.43872 1.41899,801.43872 1.41899,801.43872 l 0,0 0,0 0,0 0,0"
         style="fill:none;fill-rule:evenodd;stroke:#000000;stroke-width:4;stroke-linecap:butt;stroke-linejoin:miter;stroke-miterlimit:4;stroke-dasharray:none;stroke-opacity:1" />
      <ellipse
         ry="13.571428"
         rx="12.857142"
         cy="287.36218"
         cx="535.71429"
         id="path4211"
         style="stroke-width:4;stroke-miterlimit:4;stroke-dasharray:none" />
      <path
         inkscape:connector-curvature="0"
         id="path4153"
         d="m 581.95876,208.07306 c 1.42677,799.99964 1.42677,799.99964 1.42677,799.99964 l 0,0 0,0 0,0"
         style="fill:none;fill-rule:evenodd;stroke:#000000;stroke-width:4.004632;stroke-linecap:butt;stroke-linejoin:miter;stroke-miterlimit:4;stroke-dasharray:none;stroke-opacity:1" />
      <ellipse
         ry="15"
         rx="13.571428"
         cy="327.36221"
         cx="530.71429"
         id="path4157"
         style="stroke-width:4;stroke-miterlimit:4;stroke-dasharray:none" />
      <circle
         r="13.571428"
         cy="301.64792"
         cx="509.28571"
         id="path4159"
         style="stroke-width:4;stroke-miterlimit:4;stroke-dasharray:none" />
      <circle
         r="12.142858"
         cy="268.79077"
         cx="509.28571"
         id="path4161"
         style="stroke-width:4;stroke-miterlimit:4;stroke-dasharray:none" />
      <ellipse
         ry="12.857142"
         rx="12.142858"
         cy="246.6479"
         cx="565"
         id="path4163"
         style="stroke-width:4;stroke-miterlimit:4;stroke-dasharray:none" />
      <ellipse
         ry="15.714286"
         rx="15"
         cy="310.93362"
         cx="560.71429"
         id="path4165"
         style="stroke-width:4;stroke-miterlimit:4;stroke-dasharray:none" />
      <ellipse
         ry="7.8571429"
         rx="8.5714283"
         cy="353.07648"
         cx="537.14288"
         id="path4167"
         style="stroke-width:4;stroke-miterlimit:4;stroke-dasharray:none" />
      <circle
         r="14.285714"
         cy="350.93362"
         cx="561.42859"
         id="path4169"
         style="stroke-width:4;stroke-miterlimit:4;stroke-dasharray:none" />
      <circle
         r="13.571428"
         cy="357.36221"
         cx="515"
         id="path4171"
         style="stroke-width:4;stroke-miterlimit:4;stroke-dasharray:none" />
      <ellipse
         ry="14.285714"
         rx="12.142858"
         cy="380.93362"
         cx="542.14288"
         id="path4173"
         style="stroke-width:4;stroke-miterlimit:4;stroke-dasharray:none" />
      <circle
         r="14.285714"
         cy="398.07648"
         cx="514.28571"
         id="path4175"
         style="stroke-width:4;stroke-miterlimit:4;stroke-dasharray:none" />
      <ellipse
         ry="13.571428"
         rx="12.142858"
         cy="418.79077"
         cx="543.57141"
         id="path4177"
         style="stroke-width:4;stroke-miterlimit:4;stroke-dasharray:none" />
      <circle
         r="12.857142"
         cy="435.21933"
         cx="514.28571"
         id="path4181"
         style="stroke-width:4;stroke-miterlimit:4;stroke-dasharray:none" />
      <circle
         r="14.285714"
         cy="448.07648"
         cx="560"
         id="path4183"
         style="stroke-width:4;stroke-miterlimit:4;stroke-dasharray:none" />
      <ellipse
         ry="14.285714"
         rx="13.571428"
         cy="398.07648"
         cx="566.42859"
         id="path4185"
         style="stroke-width:4;stroke-miterlimit:4;stroke-dasharray:none" />
      <ellipse
         ry="10.714286"
         rx="11.428572"
         cy="277.36221"
         cx="565.71429"
         id="path4187"
         style="stroke-width:4;stroke-miterlimit:4;stroke-dasharray:none" />
      <ellipse
         ry="14.285714"
         rx="13.571428"
         cy="463.79077"
         cx="532.14288"
         id="path4189"
         style="stroke-width:4;stroke-miterlimit:4;stroke-dasharray:none" />
      <path
         inkscape:connector-curvature="0"
         id="path4191"
         d="m 445.71429,1012.3622 c 187.14286,-2.8572 187.14286,-2.8572 187.14286,-2.8572"
         style="fill:none;fill-rule:evenodd;stroke:#000000;stroke-width:4;stroke-linecap:butt;stroke-linejoin:miter;stroke-miterlimit:4;stroke-dasharray:none;stroke-opacity:1" />
      <path
         inkscape:connector-curvature="0"
         id="path4193"
         d="M 631.42858,1013.7908 Z"
         style="fill:none;fill-rule:evenodd;stroke:#000000;stroke-width:1px;stroke-linecap:butt;stroke-linejoin:miter;stroke-opacity:1" />
      <ellipse
         ry="13.571428"
         rx="15"
         cy="254.50508"
         cx="535"
         id="path4586"
         style="stroke-width:4;stroke-miterlimit:4;stroke-dasharray:none" />
      <ellipse
         ry="12.857142"
         rx="13.571428"
         cy="489.50507"
         cx="512.14282"
         id="path4588"
         style="stroke-width:4;stroke-miterlimit:4;stroke-dasharray:none" />
      <circle
         r="13.571428"
         cy="483.07648"
         cx="560.71429"
         id="path4590"
         style="stroke-width:4;stroke-miterlimit:4;stroke-dasharray:none" />
      <circle
         r="13.571428"
         cy="511.64789"
         cx="540.71429"
         id="path4592"
         style="stroke-width:4;stroke-miterlimit:4;stroke-dasharray:none" />
      <ellipse
         ry="10.714286"
         rx="10"
         cy="460.21933"
         cx="507.14285"
         id="path4603"
         style="stroke-width:4;stroke-miterlimit:4;stroke-dasharray:none" />
      <circle
         r="12.142858"
         cy="520.21936"
         cx="510.71429"
         id="path4605"
         style="stroke-width:4;stroke-miterlimit:4;stroke-dasharray:none" />
      <ellipse
         ry="10.714286"
         rx="10"
         cy="517.36218"
         cx="570"
         id="path4607"
         style="stroke-width:4;stroke-miterlimit:4;stroke-dasharray:none" />
      <ellipse
         ry="13.571428"
         rx="14.285714"
         cy="544.50507"
         cx="534.28571"
         id="path4609"
         style="stroke-width:4;stroke-miterlimit:4;stroke-dasharray:none" />
      <circle
         r="12.857142"
         cy="549.50507"
         cx="565.71429"
         id="path4611"
         style="stroke-width:4;stroke-miterlimit:4;stroke-dasharray:none" />
      <circle
         r="10.714286"
         cy="551.64795"
         cx="507.85715"
         id="path4613"
         style="stroke-width:4;stroke-miterlimit:4;stroke-dasharray:none" />
      <circle
         r="10.714286"
         cy="573.07648"
         cx="527.85712"
         id="path4615"
         style="stroke-width:4;stroke-miterlimit:4;stroke-dasharray:none" />
      <ellipse
         ry="12.142858"
         rx="12.857142"
         cy="575.93365"
         cx="555.71429"
         id="path4617"
         style="stroke-width:4;stroke-miterlimit:4;stroke-dasharray:none" />
      <ellipse
         ry="10.714286"
         rx="10"
         cy="584.50507"
         cx="507.14285"
         id="path4619"
         style="stroke-width:4;stroke-miterlimit:4;stroke-dasharray:none" />
      <ellipse
         ry="9.2857141"
         rx="8.5714283"
         cy="598.79077"
         cx="571.42859"
         id="path4621"
         style="stroke-width:4;stroke-miterlimit:4;stroke-dasharray:none" />
      <ellipse
         ry="11.428572"
         rx="12.142858"
         cy="599.50507"
         cx="539.28571"
         id="path4623"
         style="stroke-width:4;stroke-miterlimit:4;stroke-dasharray:none" />
      <ellipse
         ry="12.857142"
         rx="12.142858"
         cy="615.21936"
         cx="509.28571"
         id="path4625"
         style="stroke-width:4;stroke-miterlimit:4;stroke-dasharray:none" />
      <ellipse
         ry="11.428572"
         rx="12.142858"
         cy="626.64795"
         cx="535"
         id="path4627"
         style="stroke-width:4;stroke-miterlimit:4;stroke-dasharray:none" />
      <path
         inkscape:connector-curvature="0"
         id="path4973"
         d="m 535.5338,178.56303 c 1.58838,-89.997316 1.58838,-89.997316 1.58838,-89.997316"
         style="fill:none;fill-rule:evenodd;stroke:#000000;stroke-width:4;stroke-linecap:butt;stroke-linejoin:miter;stroke-miterlimit:4;stroke-dasharray:none;stroke-opacity:1;marker-start:url(#Arrow2Lstart)" />
      <ellipse
         ry="13.571428"
         rx="14.285714"
         cy="628.79077"
         cx="564.28571"
         id="path6531"
         style="stroke-width:4;stroke-miterlimit:4;stroke-dasharray:none" />
      <ellipse
         ry="12.142858"
         rx="12.857142"
         cy="647.36218"
         cx="508.57144"
         id="path6533"
         style="stroke-width:4;stroke-miterlimit:4;stroke-dasharray:none" />
      <ellipse
         ry="11.428572"
         rx="12.142858"
         cy="655.21936"
         cx="540.71429"
         id="path6535"
         style="stroke-width:4;stroke-miterlimit:4;stroke-dasharray:none" />
      <ellipse
         ry="10"
         rx="10.714286"
         cy="660.93365"
         cx="572.14288"
         id="path6537"
         style="stroke-width:4;stroke-miterlimit:4;stroke-dasharray:none" />
      <ellipse
         ry="9.2857141"
         rx="11.428572"
         cy="674.50507"
         cx="511.42859"
         id="path6539"
         style="stroke-width:4;stroke-miterlimit:4;stroke-dasharray:none" />
      <ellipse
         ry="9.2857141"
         rx="10.714286"
         cy="677.36218"
         cx="536.42859"
         id="path6541"
         style="stroke-width:4;stroke-miterlimit:4;stroke-dasharray:none" />
      <ellipse
         ry="11.428572"
         rx="12.142858"
         cy="685.21936"
         cx="565"
         id="path6543"
         style="stroke-width:4;stroke-miterlimit:4;stroke-dasharray:none" />
      <ellipse
         ry="13.571428"
         rx="14.285714"
         cy="703.07648"
         cx="515.71429"
         id="path6545"
         style="stroke-width:4;stroke-miterlimit:4;stroke-dasharray:none" />
      <ellipse
         ry="12.857143"
         rx="12.142857"
         cy="706.64795"
         cx="549.28571"
         id="path6547"
         style="stroke-width:4;stroke-miterlimit:4;stroke-dasharray:none" />
      <ellipse
         ry="10"
         rx="7.8571429"
         cy="710.93365"
         cx="572.14288"
         id="path6549"
         style="stroke-width:4;stroke-miterlimit:4;stroke-dasharray:none" />
      <ellipse
         ry="12.857142"
         rx="12.142858"
         cy="735.21936"
         cx="510.71429"
         id="path6551"
         style="stroke-width:4;stroke-miterlimit:4;stroke-dasharray:none" />
      <circle
         r="15"
         cy="738.79077"
         cx="543.57141"
         id="path6553"
         style="stroke-width:4;stroke-miterlimit:4;stroke-dasharray:none" />
      <ellipse
         ry="10.714286"
         rx="9.2857141"
         cy="738.79077"
         cx="573.57141"
         id="path6555"
         style="stroke-width:4;stroke-miterlimit:4;stroke-dasharray:none" />
      <circle
         r="10"
         cy="330.93359"
         cx="504.28571"
         id="path6557"
         style="stroke-width:4;stroke-miterlimit:4;stroke-dasharray:none" />
      <text
         sodipodi:linespacing="125%"
         id="text6559"
         y="60.933632"
         x="368.57141"
         style="font-style:normal;font-weight:normal;font-size:40px;line-height:125%;font-family:Sans;letter-spacing:0px;word-spacing:0px;fill:#000000;fill-opacity:1;stroke:none;stroke-width:1px;stroke-linecap:butt;stroke-linejoin:miter;stroke-opacity:1"
         xml:space="preserve"><tspan
           style="font-style:normal;font-variant:normal;font-weight:bold;font-stretch:normal;font-family:Sans;-inkscape-font-specification:'Sans Bold'"
           y="60.933632"
           x="368.57141"
           id="tspan6561"
           sodipodi:role="line">water injection</tspan></text>
      <text
         transform="matrix(0.00105543,-0.99999944,0.99999944,0.00105543,0,0)"
         sodipodi:linespacing="125%"
         id="text6669"
         y="639.57233"
         x="-652.2738"
         style="font-style:normal;font-weight:normal;font-size:40px;line-height:125%;font-family:Sans;letter-spacing:0px;word-spacing:0px;fill:#000000;fill-opacity:1;stroke:none;stroke-width:1px;stroke-linecap:butt;stroke-linejoin:miter;stroke-opacity:1"
         xml:space="preserve"><tspan
           style="font-style:normal;font-variant:normal;font-weight:bold;font-stretch:normal;font-family:Sans;-inkscape-font-specification:'Sans Bold'"
           y="639.57233"
           x="-652.2738"
           id="tspan6671"
           sodipodi:role="line">no flux</tspan></text>
      <text
         transform="matrix(0.00677657,-0.99997704,0.99997704,0.00677657,0,0)"
         sodipodi:linespacing="125%"
         id="text6683"
         y="471.43073"
         x="-651.28088"
         style="font-style:normal;font-weight:normal;font-size:40px;line-height:125%;font-family:Sans;letter-spacing:0px;word-spacing:0px;fill:#000000;fill-opacity:1;stroke:none;stroke-width:1px;stroke-linecap:butt;stroke-linejoin:miter;stroke-opacity:1"
         xml:space="preserve"><tspan
           style="font-style:normal;font-variant:normal;font-weight:bold;font-stretch:normal;font-family:Sans;-inkscape-font-specification:'Sans Bold'"
           y="471.43073"
           x="-651.28088"
           id="tspan6685"
           sodipodi:role="line">no flux</tspan></text>
      <circle
         r="12.142858"
         cy="765.93365"
         cx="567.85712"
         id="path6687"
         style="stroke-width:4;stroke-miterlimit:4;stroke-dasharray:none" />
      <circle
         r="14.285714"
         cy="766.64795"
         cx="520"
         id="path6689"
         style="stroke-width:4;stroke-miterlimit:4;stroke-dasharray:none" />
      <circle
         r="7.8571429"
         cy="768.79077"
         cx="545"
         id="path6691"
         style="stroke-width:4;stroke-miterlimit:4;stroke-dasharray:none" />
      <circle
         r="13.571428"
         cy="797.36218"
         cx="512.14288"
         id="path6693"
         style="stroke-width:4;stroke-miterlimit:4;stroke-dasharray:none" />
      <ellipse
         ry="12.142858"
         rx="13.571428"
         cy="798.79077"
         cx="546.42859"
         id="path6695"
         style="stroke-width:4;stroke-miterlimit:4;stroke-dasharray:none" />
      <ellipse
         ry="10"
         rx="8.5714283"
         cy="798.07648"
         cx="572.85712"
         id="path6697"
         style="stroke-width:4;stroke-miterlimit:4;stroke-dasharray:none" />
      <ellipse
         ry="16.428572"
         rx="15"
         cy="831.64789"
         cx="525"
         id="path6699"
         style="stroke-width:4;stroke-miterlimit:4;stroke-dasharray:none" />
      <circle
         r="8.5714283"
         cy="425.21933"
         cx="567.14288"
         id="path6701"
         style="stroke-width:4;stroke-miterlimit:4;stroke-dasharray:none" />
      <ellipse
         ry="13.571428"
         rx="15.714286"
         cy="833.07648"
         cx="562.85712"
         id="path6703"
         style="stroke-width:4;stroke-miterlimit:4;stroke-dasharray:none" />
      <ellipse
         ry="8.5714283"
         rx="7.1428571"
         cy="822.36218"
         cx="501.42856"
         id="path6705"
         style="stroke-width:4;stroke-miterlimit:4;stroke-dasharray:none" />
      <ellipse
         ry="13.571428"
         rx="14.285714"
         cy="863.07648"
         cx="512.85712"
         id="path6707"
         style="stroke-width:4;stroke-miterlimit:4;stroke-dasharray:none" />
      <ellipse
         ry="12.142858"
         rx="12.857142"
         cy="858.79077"
         cx="544.28571"
         id="path6709"
         style="stroke-width:4;stroke-miterlimit:4;stroke-dasharray:none" />
      <circle
         r="6.4285712"
         cy="858.79077"
         cx="569.28571"
         id="path6711"
         style="stroke-width:4;stroke-miterlimit:4;stroke-dasharray:none" />
      <circle
         r="12.857142"
         cy="886.64789"
         cx="567.14288"
         id="path6713"
         style="stroke-width:4;stroke-miterlimit:4;stroke-dasharray:none" />
      <ellipse
         ry="11.428572"
         rx="12.857142"
         cy="888.07648"
         cx="538.57141"
         id="path6715"
         style="stroke-width:4;stroke-miterlimit:4;stroke-dasharray:none" />
      <circle
         r="12.857143"
         cy="893.79083"
         cx="510"
         id="path6717"
         style="stroke-width:4;stroke-miterlimit:4;stroke-dasharray:none" />
      <circle
         r="11.428571"
         cy="919.505"
         cx="532.85718"
         id="path5912"
         style="font-style:normal;font-variant:normal;font-weight:normal;font-stretch:normal;letter-spacing:normal;word-spacing:normal;text-anchor:start;fill:#000003;fill-opacity:1;fill-rule:evenodd;stroke:#000003;stroke-width:4;stroke-linecap:butt;stroke-linejoin:miter;stroke-miterlimit:4;stroke-dasharray:none;stroke-dashoffset:0;stroke-opacity:1" />
      <ellipse
         ry="12.142858"
         rx="11.428571"
         cy="915.93359"
         cx="564.28571"
         id="path5914"
         style="font-style:normal;font-variant:normal;font-weight:normal;font-stretch:normal;letter-spacing:normal;word-spacing:normal;text-anchor:start;fill:#000003;fill-opacity:1;fill-rule:evenodd;stroke:#000003;stroke-width:4;stroke-linecap:butt;stroke-linejoin:miter;stroke-miterlimit:4;stroke-dasharray:none;stroke-dashoffset:0;stroke-opacity:1" />
      <circle
         r="7.8571424"
         cy="921.64789"
         cx="507.85712"
         id="path5916"
         style="font-style:normal;font-variant:normal;font-weight:normal;font-stretch:normal;letter-spacing:normal;word-spacing:normal;text-anchor:start;fill:#000003;fill-opacity:1;fill-rule:evenodd;stroke:#000003;stroke-width:4;stroke-linecap:butt;stroke-linejoin:miter;stroke-miterlimit:4;stroke-dasharray:none;stroke-dashoffset:0;stroke-opacity:1" />
      <ellipse
         ry="10"
         rx="10.714285"
         cy="948.07648"
         cx="517.85712"
         id="path5918"
         style="font-style:normal;font-variant:normal;font-weight:normal;font-stretch:normal;letter-spacing:normal;word-spacing:normal;text-anchor:start;fill:#000003;fill-opacity:1;fill-rule:evenodd;stroke:#000003;stroke-width:4;stroke-linecap:butt;stroke-linejoin:miter;stroke-miterlimit:4;stroke-dasharray:none;stroke-dashoffset:0;stroke-opacity:1" />
      <ellipse
         ry="12.142858"
         rx="13.571428"
         cy="945.93359"
         cx="557.85712"
         id="path5920"
         style="font-style:normal;font-variant:normal;font-weight:normal;font-stretch:normal;letter-spacing:normal;word-spacing:normal;text-anchor:start;fill:#000003;fill-opacity:1;fill-rule:evenodd;stroke:#000003;stroke-width:4;stroke-linecap:butt;stroke-linejoin:miter;stroke-miterlimit:4;stroke-dasharray:none;stroke-dashoffset:0;stroke-opacity:1" />
      <ellipse
         ry="11.428571"
         rx="10"
         cy="979.505"
         cx="512.85718"
         id="path5922"
         style="font-style:normal;font-variant:normal;font-weight:normal;font-stretch:normal;letter-spacing:normal;word-spacing:normal;text-anchor:start;fill:#000003;fill-opacity:1;fill-rule:evenodd;stroke:#000003;stroke-width:4;stroke-linecap:butt;stroke-linejoin:miter;stroke-miterlimit:4;stroke-dasharray:none;stroke-dashoffset:0;stroke-opacity:1" />
      <circle
         r="9.2857141"
         cy="968.79077"
         cx="537.85712"
         id="path5924"
         style="font-style:normal;font-variant:normal;font-weight:normal;font-stretch:normal;letter-spacing:normal;word-spacing:normal;text-anchor:start;fill:#000003;fill-opacity:1;fill-rule:evenodd;stroke:#000003;stroke-width:4;stroke-linecap:butt;stroke-linejoin:miter;stroke-miterlimit:4;stroke-dasharray:none;stroke-dashoffset:0;stroke-opacity:1" />
      <ellipse
         ry="11.428571"
         rx="10.714285"
         cy="979.505"
         cx="567.85712"
         id="path5926"
         style="font-style:normal;font-variant:normal;font-weight:normal;font-stretch:normal;letter-spacing:normal;word-spacing:normal;text-anchor:start;fill:#000003;fill-opacity:1;fill-rule:evenodd;stroke:#000003;stroke-width:4;stroke-linecap:butt;stroke-linejoin:miter;stroke-miterlimit:4;stroke-dasharray:none;stroke-dashoffset:0;stroke-opacity:1" />
      <ellipse
         ry="9.2857141"
         rx="10"
         cy="995.93359"
         cx="535.71429"
         id="path5928"
         style="font-style:normal;font-variant:normal;font-weight:normal;font-stretch:normal;letter-spacing:normal;word-spacing:normal;text-anchor:start;fill:#000003;fill-opacity:1;fill-rule:evenodd;stroke:#000003;stroke-width:4;stroke-linecap:butt;stroke-linejoin:miter;stroke-miterlimit:4;stroke-dasharray:none;stroke-dashoffset:0;stroke-opacity:1" />
      <ellipse
         ry="5.7142854"
         rx="5"
         cy="1002.3622"
         cx="560.71423"
         id="path5930"
         style="font-style:normal;font-variant:normal;font-weight:normal;font-stretch:normal;letter-spacing:normal;word-spacing:normal;text-anchor:start;fill:#000003;fill-opacity:1;fill-rule:evenodd;stroke:#000003;stroke-width:4;stroke-linecap:butt;stroke-linejoin:miter;stroke-miterlimit:4;stroke-dasharray:none;stroke-dashoffset:0;stroke-opacity:1" />
      <circle
         r="6.4285712"
         cy="1001.6479"
         cx="507.85712"
         id="path5932"
         style="font-style:normal;font-variant:normal;font-weight:normal;font-stretch:normal;letter-spacing:normal;word-spacing:normal;text-anchor:start;fill:#000003;fill-opacity:1;fill-rule:evenodd;stroke:#000003;stroke-width:4;stroke-linecap:butt;stroke-linejoin:miter;stroke-miterlimit:4;stroke-dasharray:none;stroke-dashoffset:0;stroke-opacity:1" />
      <ellipse
         ry="7.1428571"
         rx="7.8571424"
         cy="245.21933"
         cx="506.42853"
         id="path5934"
         style="font-style:normal;font-variant:normal;font-weight:normal;font-stretch:normal;letter-spacing:normal;word-spacing:normal;text-anchor:start;fill:#000003;fill-opacity:1;fill-rule:evenodd;stroke:#000003;stroke-width:4;stroke-linecap:butt;stroke-linejoin:miter;stroke-miterlimit:4;stroke-dasharray:none;stroke-dashoffset:0;stroke-opacity:1" />
    </g>
    <g
       transform="translate(-101.22434,-14.142137)"
       id="g7327">
      <path
         inkscape:connector-curvature="0"
         id="path6079"
         d="m 710.01858,1018.5804 c 1.5609,-887.35154 1.5609,-887.35154 1.5609,-887.35154 l 0,0 0,0"
         style="fill:none;fill-rule:evenodd;stroke:#000000;stroke-width:4.00000048;stroke-linecap:butt;stroke-linejoin:miter;stroke-miterlimit:4;stroke-dasharray:none;stroke-opacity:1;marker-start:url(#marker6129)" />
      <path
         inkscape:connector-curvature="0"
         id="path6915"
         d="m 687.91388,157.36707 c 44.44671,0 44.44671,0 44.44671,0"
         style="fill:none;fill-rule:evenodd;stroke:#000000;stroke-width:4.04624414;stroke-linecap:butt;stroke-linejoin:miter;stroke-miterlimit:4;stroke-dasharray:none;stroke-opacity:1" />
      <path
         inkscape:connector-curvature="0"
         id="path6926"
         d="m 687.91387,935.18456 c 43.43656,0 43.43656,0 43.43656,0"
         style="fill:none;fill-rule:evenodd;stroke:#000000;stroke-width:3.63741231;stroke-linecap:butt;stroke-linejoin:miter;stroke-miterlimit:4;stroke-dasharray:none;stroke-opacity:1" />
    </g>
    <g
       transform="translate(303.0458,-153.5432)"
       id="g7199">
      <g
         style="font-style:normal;font-variant:normal;font-weight:normal;font-stretch:normal;letter-spacing:normal;word-spacing:normal;text-anchor:start;fill:none;fill-opacity:1;fill-rule:evenodd;stroke:#000000;stroke-linecap:butt;stroke-linejoin:miter;stroke-miterlimit:10.43299961;stroke-dasharray:none;stroke-dashoffset:0;stroke-opacity:1"
         id="content"
         transform="matrix(1.2654668,0,0,-1.2654668,-221.45669,823.8189)"
         xml:space="preserve"
         stroke-miterlimit="10.433"
         font-style="normal"
         font-variant="normal"
         font-weight="normal"
         font-stretch="normal"
         font-size-adjust="none"
         letter-spacing="normal"
         word-spacing="normal"><path
           style="fill:#000000;stroke-width:0"
           inkscape:connector-curvature="0"
           d="m 462.14,410.34 0.25,0.27 0.24,0.25 0.24,0.25 0.23,0.24 0.22,0.23 0.22,0.22 0.21,0.22 0.2,0.21 0.2,0.2 0.2,0.19 0.19,0.19 0.19,0.19 0.18,0.17 0.19,0.18 0.35,0.33 0.34,0.32 0.33,0.3 0.33,0.29 0.32,0.29 0.65,0.56 0.33,0.29 0.33,0.28 c 0,0.05 3.08,2.69 4.88,4.49 4.73,4.64 5.83,7.03 5.83,7.21 0,0.5 -0.46,0.5 -0.55,0.5 -0.35,0 -0.5,-0.09 -0.75,-0.54 -1.49,-2.39 -2.53,-3.19 -3.74,-3.19 -1.2,0 -1.79,0.75 -2.54,1.59 -0.94,1.16 -1.78,2.14 -3.44,2.14 -3.73,0 -6.02,-4.62 -6.02,-5.67 0,-0.25 0.14,-0.54 0.6,-0.54 0.45,0 0.54,0.25 0.64,0.54 0.95,2.3 3.84,2.35 4.23,2.35 1.05,0 2,-0.36 3.14,-0.75 2,-0.75 2.55,-0.75 3.85,-0.75 -1.8,-2.14 -5.99,-5.74 -6.92,-6.53 l -4.49,-4.18 c -3.39,-3.34 -5.14,-6.18 -5.14,-6.53 0,-0.5 0.5,-0.5 0.59,-0.5 0.41,0 0.5,0.1 0.8,0.64 1.16,1.75 2.64,3.1 4.24,3.1 1.15,0 1.65,-0.46 2.89,-1.89 0.86,-1.05 1.75,-1.85 3.18,-1.85 4.94,0 7.83,6.33 7.83,7.67 0,0.25 -0.2,0.5 -0.59,0.5 -0.46,0 -0.55,-0.29 -0.71,-0.65 -1.14,-3.24 -4.32,-4.17 -5.98,-4.17 -0.98,0 -1.89,0.29 -2.94,0.64 -1.68,0.64 -2.43,0.84 -3.48,0.84 -0.1,0 -0.89,0 -1.35,-0.14 z"
           id="path7202" /><path
           style="fill:#000000;stroke-width:0"
           inkscape:connector-curvature="0"
           d="m 528.99,422.5 0.14,0 0.15,0 0.14,0 0.07,0.01 0.08,0 0.07,0.01 0.07,0.01 0.07,0.01 0.07,0.01 0.07,0.01 0.06,0.02 0.07,0.02 0.06,0.02 0.06,0.02 0.06,0.03 0.06,0.03 0.05,0.04 0.05,0.03 0.05,0.05 0.04,0.04 0.04,0.05 0.02,0.03 0.02,0.03 0.01,0.02 0.02,0.03 0.01,0.03 0.01,0.04 0.02,0.03 0.01,0.04 0.01,0.03 0.01,0.04 0,0.04 0.01,0.04 0,0.04 0.01,0.04 0,0.04 0,0.05 c 0,1 -0.95,1 -1.64,1 l -29.84,0 c -0.71,0 -1.65,0 -1.65,-1 0,-0.98 0.94,-0.98 1.69,-0.98 z"
           id="path7204" /><path
           style="fill:#000000;stroke-width:0"
           inkscape:connector-curvature="0"
           d="m 529.04,412.82 0.06,0 0.07,0 0.14,0.01 0.14,0 0.07,0 0.07,0.01 0.07,0.01 0.06,0 0.07,0.01 0.07,0.02 0.07,0.01 0.06,0.02 0.07,0.02 0.06,0.02 0.06,0.02 0.05,0.03 0.06,0.03 0.05,0.04 0.05,0.04 0.05,0.04 0.04,0.05 0.02,0.02 0.02,0.03 0.02,0.02 0.02,0.03 0.01,0.03 0.02,0.03 0.01,0.03 0.01,0.03 0.02,0.04 0.01,0.03 0.01,0.04 0.01,0.04 0,0.04 0.01,0.04 0,0.04 0.01,0.04 0,0.05 0,0.04 c 0,1 -0.95,1 -1.69,1 l -29.75,0 c -0.75,0 -1.69,0 -1.69,-1 0,-1 0.94,-1 1.65,-1 z"
           id="path7206" /><path
           style="fill:#000000;stroke-width:0"
           inkscape:connector-curvature="0"
           d="m 570.23,422.14 0,0.74 -0.01,0.75 -0.02,0.75 -0.03,0.74 -0.05,0.75 -0.06,0.74 -0.07,0.74 -0.1,0.73 -0.12,0.73 -0.13,0.73 -0.17,0.72 -0.19,0.72 -0.21,0.72 -0.25,0.7 -0.28,0.7 -0.15,0.35 -0.16,0.34 c -2.28,4.8 -6.37,5.6 -8.46,5.6 -2.99,0 -6.63,-1.3 -8.68,-5.94 -1.59,-3.44 -1.84,-7.33 -1.84,-11.31 0,-3.74 0.2,-8.22 2.25,-12 2.14,-4.03 5.78,-5.03 8.22,-5.03 l 0,1.09 c -1.94,0 -4.89,1.25 -5.78,6.03 -0.55,2.98 -0.55,7.56 -0.55,10.52 0,3.18 0,6.46 0.41,9.15 0.93,5.94 4.67,6.38 5.92,6.38 1.64,0 4.94,-0.89 5.87,-5.83 0.5,-2.78 0.5,-6.58 0.5,-9.7 0,-3.75 0,-7.13 -0.54,-10.32 -0.75,-4.73 -3.6,-6.23 -5.83,-6.23 l 0,0 0,-1.09 c 2.69,0 6.47,1.04 8.67,5.78 1.59,3.43 1.84,7.31 1.84,11.25 z"
           id="path7208" /></g>    </g>
    <g
       id="g7466"
       transform="translate(234.35542,737.41145)">
      <g
         word-spacing="normal"
         letter-spacing="normal"
         font-size-adjust="none"
         font-stretch="normal"
         font-weight="normal"
         font-variant="normal"
         font-style="normal"
         stroke-miterlimit="10.433"
         xml:space="preserve"
         transform="matrix(1.2654668,0,0,-1.2654668,-221.45669,823.8189)"
         id="g7468"
         style="font-style:normal;font-variant:normal;font-weight:normal;font-stretch:normal;letter-spacing:normal;word-spacing:normal;text-anchor:start;fill:none;fill-opacity:1;fill-rule:evenodd;stroke:#000000;stroke-linecap:butt;stroke-linejoin:miter;stroke-miterlimit:10.43299961;stroke-dasharray:none;stroke-dashoffset:0;stroke-opacity:1"><path
           id="path7470"
           d="m 462.14,410.34 0.25,0.27 0.24,0.25 0.24,0.25 0.23,0.24 0.22,0.23 0.22,0.22 0.21,0.22 0.2,0.21 0.2,0.2 0.2,0.19 0.19,0.19 0.19,0.19 0.18,0.17 0.19,0.18 0.35,0.33 0.34,0.32 0.33,0.3 0.33,0.29 0.32,0.29 0.65,0.56 0.33,0.29 0.33,0.28 c 0,0.05 3.08,2.69 4.88,4.49 4.73,4.64 5.83,7.03 5.83,7.21 0,0.5 -0.46,0.5 -0.55,0.5 -0.35,0 -0.5,-0.09 -0.75,-0.54 -1.49,-2.39 -2.53,-3.19 -3.74,-3.19 -1.2,0 -1.79,0.75 -2.54,1.59 -0.94,1.16 -1.78,2.14 -3.44,2.14 -3.73,0 -6.02,-4.62 -6.02,-5.67 0,-0.25 0.14,-0.54 0.6,-0.54 0.45,0 0.54,0.25 0.64,0.54 0.95,2.3 3.84,2.35 4.23,2.35 1.05,0 2,-0.36 3.14,-0.75 2,-0.75 2.55,-0.75 3.85,-0.75 -1.8,-2.14 -5.99,-5.74 -6.92,-6.53 l -4.49,-4.18 c -3.39,-3.34 -5.14,-6.18 -5.14,-6.53 0,-0.5 0.5,-0.5 0.59,-0.5 0.41,0 0.5,0.1 0.8,0.64 1.16,1.75 2.64,3.1 4.24,3.1 1.15,0 1.65,-0.46 2.89,-1.89 0.86,-1.05 1.75,-1.85 3.18,-1.85 4.94,0 7.83,6.33 7.83,7.67 0,0.25 -0.2,0.5 -0.59,0.5 -0.46,0 -0.55,-0.29 -0.71,-0.65 -1.14,-3.24 -4.32,-4.17 -5.98,-4.17 -0.98,0 -1.89,0.29 -2.94,0.64 -1.68,0.64 -2.43,0.84 -3.48,0.84 -0.1,0 -0.89,0 -1.35,-0.14 z"
           inkscape:connector-curvature="0"
           style="fill:#000000;stroke-width:0" /></g>    </g>
    <g
       transform="translate(303.0458,610.13221)"
       id="g7716">
      <g
         style="font-style:normal;font-variant:normal;font-weight:normal;font-stretch:normal;letter-spacing:normal;word-spacing:normal;text-anchor:start;fill:none;fill-opacity:1;fill-rule:evenodd;stroke:#000000;stroke-linecap:butt;stroke-linejoin:miter;stroke-miterlimit:10.43299961;stroke-dasharray:none;stroke-dashoffset:0;stroke-opacity:1"
         id="g7718"
         transform="matrix(1.2654668,0,0,-1.2654668,-221.45669,837.1063)"
         xml:space="preserve"
         stroke-miterlimit="10.433"
         font-style="normal"
         font-variant="normal"
         font-weight="normal"
         font-stretch="normal"
         font-size-adjust="none"
         letter-spacing="normal"
         word-spacing="normal"><path
           style="fill:#000000;stroke-width:0"
           inkscape:connector-curvature="0"
           d="m 462.14,410.34 0.25,0.27 0.24,0.25 0.24,0.25 0.23,0.24 0.22,0.23 0.22,0.22 0.21,0.22 0.2,0.21 0.2,0.2 0.2,0.19 0.19,0.19 0.19,0.19 0.18,0.17 0.19,0.18 0.35,0.33 0.34,0.32 0.33,0.3 0.33,0.29 0.32,0.29 0.65,0.56 0.33,0.29 0.33,0.28 c 0,0.05 3.08,2.69 4.88,4.49 4.73,4.64 5.83,7.03 5.83,7.21 0,0.5 -0.46,0.5 -0.55,0.5 -0.35,0 -0.5,-0.09 -0.75,-0.54 -1.49,-2.39 -2.53,-3.19 -3.74,-3.19 -1.2,0 -1.79,0.75 -2.54,1.59 -0.94,1.16 -1.78,2.14 -3.44,2.14 -3.73,0 -6.02,-4.62 -6.02,-5.67 0,-0.25 0.14,-0.54 0.6,-0.54 0.45,0 0.54,0.25 0.64,0.54 0.95,2.3 3.84,2.35 4.23,2.35 1.05,0 2,-0.36 3.14,-0.75 2,-0.75 2.55,-0.75 3.85,-0.75 -1.8,-2.14 -5.99,-5.74 -6.92,-6.53 l -4.49,-4.18 c -3.39,-3.34 -5.14,-6.18 -5.14,-6.53 0,-0.5 0.5,-0.5 0.59,-0.5 0.41,0 0.5,0.1 0.8,0.64 1.16,1.75 2.64,3.1 4.24,3.1 1.15,0 1.65,-0.46 2.89,-1.89 0.86,-1.05 1.75,-1.85 3.18,-1.85 4.94,0 7.83,6.33 7.83,7.67 0,0.25 -0.2,0.5 -0.59,0.5 -0.46,0 -0.55,-0.29 -0.71,-0.65 -1.14,-3.24 -4.32,-4.17 -5.98,-4.17 -0.98,0 -1.89,0.29 -2.94,0.64 -1.68,0.64 -2.43,0.84 -3.48,0.84 -0.1,0 -0.89,0 -1.35,-0.14 z"
           id="path7720" /><path
           style="fill:#000000;stroke-width:0"
           inkscape:connector-curvature="0"
           d="m 528.99,422.5 0.14,0 0.15,0 0.14,0 0.07,0.01 0.08,0 0.07,0.01 0.07,0.01 0.07,0.01 0.07,0.01 0.07,0.01 0.06,0.02 0.07,0.02 0.06,0.02 0.06,0.02 0.06,0.03 0.06,0.03 0.05,0.04 0.05,0.03 0.05,0.05 0.04,0.04 0.04,0.05 0.02,0.03 0.02,0.03 0.01,0.02 0.02,0.03 0.01,0.03 0.01,0.04 0.02,0.03 0.01,0.04 0.01,0.03 0.01,0.04 0,0.04 0.01,0.04 0,0.04 0.01,0.04 0,0.04 0,0.05 c 0,1 -0.95,1 -1.64,1 l -29.84,0 c -0.71,0 -1.65,0 -1.65,-1 0,-0.98 0.94,-0.98 1.69,-0.98 z"
           id="path7722" /><path
           style="fill:#000000;stroke-width:0"
           inkscape:connector-curvature="0"
           d="m 529.04,412.82 0.06,0 0.07,0 0.14,0.01 0.14,0 0.07,0 0.07,0.01 0.07,0.01 0.06,0 0.07,0.01 0.07,0.02 0.07,0.01 0.06,0.02 0.07,0.02 0.06,0.02 0.06,0.02 0.05,0.03 0.06,0.03 0.05,0.04 0.05,0.04 0.05,0.04 0.04,0.05 0.02,0.02 0.02,0.03 0.02,0.02 0.02,0.03 0.01,0.03 0.02,0.03 0.01,0.03 0.01,0.03 0.02,0.04 0.01,0.03 0.01,0.04 0.01,0.04 0,0.04 0.01,0.04 0,0.04 0.01,0.04 0,0.05 0,0.04 c 0,1 -0.95,1 -1.69,1 l -29.75,0 c -0.75,0 -1.69,0 -1.69,-1 0,-1 0.94,-1 1.65,-1 z"
           id="path7724" /><path
           style="fill:#000000;stroke-width:0"
           inkscape:connector-curvature="0"
           d="m 585.33,436.39 0.04,0.16 0.04,0.16 0.04,0.15 0.04,0.14 0.04,0.14 0.04,0.13 0.04,0.12 0.05,0.11 0.05,0.11 0.06,0.11 0.06,0.09 0.06,0.09 0.07,0.09 0.08,0.08 0.09,0.07 0.1,0.07 0.1,0.06 0.12,0.06 0.12,0.05 0.14,0.05 0.15,0.04 0.16,0.04 0.09,0.02 0.09,0.02 0.09,0.01 0.1,0.02 0.1,0.01 0.1,0.01 0.11,0.02 0.12,0.01 0.11,0.01 0.12,0 0.13,0.01 0.13,0.01 0.13,0.01 0.14,0 0.15,0 0.14,0.01 0.16,0 0.15,0 0.17,0 0.17,0 c 1.29,0 1.68,0 1.68,1 0,0.55 -0.54,0.55 -0.7,0.55 -1.39,0 -4.97,-0.16 -6.38,-0.16 -1.43,0 -4.98,0.16 -6.42,0.16 -0.39,0 -0.95,0 -0.95,-1 0,-0.55 0.45,-0.55 1.41,-0.55 0.09,0 1.04,0 1.89,-0.09 0.89,-0.11 1.34,-0.16 1.34,-0.8 0,-0.2 -0.05,-0.31 -0.2,-0.95 l -2.99,-12.16 -15.2,0 2.95,11.71 c 0.44,1.79 0.6,2.29 4.17,2.29 1.3,0 1.71,0 1.71,1 0,0.55 -0.55,0.55 -0.71,0.55 -1.39,0 -4.98,-0.16 -6.37,-0.16 -1.44,0 -4.98,0.16 -6.42,0.16 -0.41,0 -0.95,0 -0.95,-1 0,-0.55 0.45,-0.55 1.39,-0.55 0.11,0 1.04,0 1.9,-0.09 0.89,-0.11 1.35,-0.16 1.35,-0.8 0,-0.2 -0.07,-0.36 -0.21,-0.95 l -6.67,-26.75 c -0.5,-1.95 -0.61,-2.34 -4.55,-2.34 -0.89,0 -1.34,0 -1.34,-1 0,-0.55 0.61,-0.55 0.7,-0.55 1.39,0 4.94,0.16 6.33,0.16 1.05,0 2.14,-0.07 3.19,-0.07 1.09,0 2.19,-0.09 3.23,-0.09 0.41,0 1,0 1,1 0,0.55 -0.45,0.55 -1.39,0.55 -1.84,0 -3.23,0 -3.23,0.89 0,0.29 0.09,0.54 0.14,0.84 l 3.39,13.66 15.19,0 c -2.1,-8.27 -3.24,-13 -3.44,-13.75 -0.48,-1.6 -1.44,-1.64 -4.53,-1.64 -0.75,0 -1.19,0 -1.19,-1 0,-0.55 0.59,-0.55 0.69,-0.55 1.4,0 4.94,0.16 6.33,0.16 1.04,0 2.14,-0.07 3.18,-0.07 1.11,0 2.21,-0.09 3.25,-0.09 0.39,0 0.99,0 0.99,1 0,0.55 -0.44,0.55 -1.39,0.55 -1.85,0 -3.24,0 -3.24,0.89 0,0.29 0.1,0.54 0.14,0.84 z"
           id="path7726" /></g>    </g>
    <path
       inkscape:connector-curvature="0"
       id="path7855"
       d="m 678.67874,528.47726 c 0.006,-212.13203 0.006,-212.13203 0.006,-212.13203"
       style="fill:none;fill-rule:evenodd;stroke:#000000;stroke-width:4.00000048;stroke-linecap:butt;stroke-linejoin:miter;stroke-miterlimit:4;stroke-dasharray:none;stroke-opacity:1;marker-start:url(#marker7863)" />
    <g
       id="g8595"
       transform="translate(343.13854,240.98279)">
      <g
         word-spacing="normal"
         letter-spacing="normal"
         font-size-adjust="none"
         font-stretch="normal"
         font-weight="normal"
         font-variant="normal"
         font-style="normal"
         stroke-miterlimit="10.433"
         xml:space="preserve"
         transform="matrix(1.2654668,0,0,-1.2654668,-221.45669,837.1063)"
         id="g8597"
         style="font-style:normal;font-variant:normal;font-weight:normal;font-stretch:normal;letter-spacing:normal;word-spacing:normal;text-anchor:start;fill:none;fill-opacity:1;fill-rule:evenodd;stroke:#000000;stroke-linecap:butt;stroke-linejoin:miter;stroke-miterlimit:10.43299961;stroke-dasharray:none;stroke-dashoffset:0;stroke-opacity:1"><path
           id="path8599"
           d="m 478.99,424.98 0.01,0.06 0.01,0.05 0.01,0.05 0.01,0.06 0.02,0.1 0.01,0.05 0.02,0.06 0.01,0.05 0.01,0.06 0.01,0.05 0,0.06 0.01,0.06 0,0.06 0.01,0.03 0,0.03 0,0.03 0,0.03 c 0,0.86 -0.59,1.36 -1.44,1.36 -0.5,0 -1.84,-0.36 -2.05,-2.16 -0.89,1.85 -2.64,3.14 -4.62,3.14 l 0.05,-1.09 c 3.28,0 3.98,-4.03 3.98,-4.28 0,-0.25 -0.09,-0.55 -0.16,-0.75 l -2.39,-9.52 c -0.29,-1.29 -1.43,-2.53 -2.53,-3.48 -1.04,-0.89 -2.59,-1.8 -4.04,-1.8 -2.49,0 -3.24,2.6 -3.24,4.58 0,2.41 1.45,8.28 2.8,10.81 1.34,2.46 3.48,4.44 5.58,4.44 l -0.05,1.09 c -5.69,0 -11.86,-6.96 -11.86,-14.14 0,-4.93 3.03,-7.87 6.63,-7.87 2.93,0 5.28,2.34 5.78,2.89 l 0.04,-0.05 c -1.04,-4.43 -1.64,-6.48 -1.64,-6.58 -0.2,-0.45 -1.89,-5.39 -7.17,-5.39 -0.95,0 -2.59,0.07 -4,0.5 1.5,0.46 2.05,1.75 2.05,2.6 0,0.79 -0.55,1.75 -1.89,1.75 -1.1,0 -2.69,-0.91 -2.69,-2.89 0,-2.05 1.84,-3.05 6.62,-3.05 6.22,0 9.82,3.89 10.57,6.88 z"
           inkscape:connector-curvature="0"
           style="fill:#000000;stroke-width:0" /></g>    </g>
  </g>
</svg>
